<?xml version="1.0" encoding="UTF-8" standalone="no"?>
<!DOCTYPE svg PUBLIC "-//W3C//DTD SVG 1.1//EN" "http://www.w3.org/Graphics/SVG/1.1/DTD/svg11.dtd">
<svg width="100%" height="100%" viewBox="0 0 256 256" version="1.1" xmlns="http://www.w3.org/2000/svg" xmlns:xlink="http://www.w3.org/1999/xlink" xml:space="preserve" xmlns:serif="http://www.serif.com/" style="fill-rule:evenodd;clip-rule:evenodd;stroke-linejoin:round;stroke-miterlimit:2;">
    <g id="Wheel" transform="matrix(0.941066,0.338224,-0.338224,0.941066,50.8363,-35.7491)">
        <g transform="matrix(1.41407,0.170324,-0.170324,1.41407,-66.4656,-48.5118)">
            <circle cx="150.376" cy="106.713" r="89.869"/>
        </g>
        <g transform="matrix(0.992824,0.119585,-0.119585,0.992824,16.2255,-14.3884)">
            <path d="M136.618,37.803C136.618,37.803 125.343,34.435 121.086,33.248C119.479,32.8 110.694,20.584 110.694,20.584C110.694,20.584 107.605,15.841 110.436,10.665C113.316,5.401 118.214,6.61 118.214,6.61L144.769,14.104L180.766,64.694L187.988,60.094C187.988,60.094 180.846,50.743 178.1,47.28C177.063,45.973 177.136,30.927 177.136,30.927C177.136,30.927 177.425,25.274 182.758,22.75C188.182,20.184 191.434,24.042 191.434,24.042L208.513,45.712L207.899,107.799L216.446,108.323C216.446,108.323 216.164,96.56 215.978,92.144C215.907,90.478 224.81,78.347 224.81,78.347C224.81,78.347 228.367,73.944 234.165,75.037C240.061,76.149 240.424,81.182 240.424,81.182L241.504,108.752L204.513,158.62L211.12,164.068C211.12,164.068 217.806,154.386 220.251,150.704C221.174,149.314 235.506,144.734 235.506,144.734C235.506,144.734 240.972,143.262 245.02,147.554C249.136,151.919 246.472,156.205 246.472,156.205L231.14,179.144L171.902,197.746L174.045,206.036C174.045,206.036 185.145,202.134 189.288,200.592C190.851,200.01 205.138,204.729 205.138,204.729C205.138,204.729 210.425,206.75 211.177,212.602C211.942,218.553 207.268,220.454 207.268,220.454L181.38,230.001L122.522,210.231L119.382,218.197C119.382,218.197 130.657,221.565 134.914,222.752C136.521,223.2 145.306,235.416 145.306,235.416C145.306,235.416 148.395,240.159 145.564,245.335C142.684,250.599 137.786,249.39 137.786,249.39L111.231,241.896L75.234,191.306L68.012,195.906C68.012,195.906 75.154,205.257 77.9,208.72C78.937,210.027 78.864,225.073 78.864,225.073C78.864,225.073 78.575,230.726 73.242,233.25C67.818,235.816 64.566,231.958 64.566,231.958L47.487,210.288L48.101,148.201L39.554,147.677C39.554,147.677 39.836,159.44 40.022,163.856C40.093,165.522 31.19,177.653 31.19,177.653C31.19,177.653 27.633,182.056 21.835,180.963C15.939,179.851 15.576,174.818 15.576,174.818L14.496,147.248L51.487,97.38L44.88,91.932C44.88,91.932 38.194,101.614 35.749,105.296C34.826,106.686 20.494,111.266 20.494,111.266C20.494,111.266 15.028,112.738 10.98,108.446C6.864,104.081 9.528,99.795 9.528,99.795L24.86,76.856L84.098,58.254L81.955,49.964C81.955,49.964 70.855,53.866 66.712,55.408C65.149,55.99 50.862,51.271 50.862,51.271C50.862,51.271 45.575,49.25 44.823,43.398C44.058,37.447 48.732,35.546 48.732,35.546L74.62,25.999L133.478,45.769L136.618,37.803Z" style="fill:white;"/>
        </g>
    </g>
    <g transform="matrix(0.608909,0.608909,-0.608909,0.608909,129.878,-58.7211)">
        <g transform="matrix(1.02857,0,0,1.04381,-7.28312,-0.400144)">
            <path d="M102.284,143.988C101.597,143.988 101.034,143.753 100.597,143.284C100.159,142.816 99.941,142.269 99.941,141.644L99.941,80.706C99.941,80.019 100.159,79.456 100.597,79.019C101.034,78.581 101.597,78.363 102.284,78.363L114.659,78.363C115.347,78.363 115.909,78.581 116.347,79.019C116.784,79.456 117.003,80.019 117.003,80.706L117.003,129.831L145.409,129.831C146.097,129.831 146.659,130.066 147.097,130.534C147.534,131.003 147.753,131.581 147.753,132.269L147.753,141.644C147.753,142.269 147.534,142.816 147.097,143.284C146.659,143.753 146.097,143.988 145.409,143.988L102.284,143.988Z" style="fill:rgb(128,25,30);fill-rule:nonzero;"/>
        </g>
        <g transform="matrix(1,0,0,1,2.76964,3.97038)">
            <path d="M182.253,144.925C176.316,144.925 171.206,143.941 166.925,141.972C162.644,140.003 159.331,137.128 156.987,133.347C154.644,129.566 153.347,124.956 153.097,119.519C153.034,116.831 153.003,113.972 153.003,110.941C153.003,107.909 153.034,105.019 153.097,102.269C153.347,96.956 154.659,92.456 157.034,88.769C159.409,85.081 162.753,82.269 167.066,80.331C171.378,78.394 176.441,77.425 182.253,77.425C186.941,77.425 191.097,78.003 194.722,79.159C198.347,80.316 201.394,81.863 203.862,83.8C206.331,85.738 208.222,87.863 209.534,90.175C210.847,92.488 211.534,94.769 211.597,97.019C211.597,97.581 211.394,98.05 210.987,98.425C210.581,98.8 210.097,98.988 209.534,98.988L195.847,98.988C195.159,98.988 194.644,98.878 194.3,98.659C193.956,98.441 193.659,98.113 193.409,97.675C192.972,96.738 192.331,95.753 191.487,94.722C190.644,93.691 189.487,92.8 188.019,92.05C186.55,91.3 184.628,90.925 182.253,90.925C178.753,90.925 175.972,91.863 173.909,93.738C171.847,95.613 170.722,98.613 170.534,102.738C170.347,108.113 170.347,113.55 170.534,119.05C170.722,123.425 171.878,126.581 174.003,128.519C176.128,130.456 178.972,131.425 182.534,131.425C184.847,131.425 186.925,131.019 188.769,130.206C190.612,129.394 192.066,128.128 193.128,126.409C194.191,124.691 194.722,122.488 194.722,119.8L194.722,118.019L185.909,118.019C185.222,118.019 184.659,117.784 184.222,117.316C183.784,116.847 183.566,116.269 183.566,115.581L183.566,108.644C183.566,107.956 183.784,107.378 184.222,106.909C184.659,106.441 185.222,106.206 185.909,106.206L209.534,106.206C210.222,106.206 210.784,106.441 211.222,106.909C211.659,107.378 211.878,107.956 211.878,108.644L211.878,119.331C211.878,124.706 210.659,129.3 208.222,133.113C205.784,136.925 202.331,139.847 197.862,141.878C193.394,143.909 188.191,144.925 182.253,144.925Z" style="fill:rgb(128,25,30);fill-rule:nonzero;"/>
        </g>
        <g transform="matrix(1.04841,0,0,1.02857,-9.2662,-24.1738)">
            <path d="M102.284,237.738C101.597,237.738 101.034,237.503 100.597,237.034C100.159,236.566 99.941,236.019 99.941,235.394L99.941,174.456C99.941,173.769 100.159,173.206 100.597,172.769C101.034,172.331 101.597,172.113 102.284,172.113L126.659,172.113C132.784,172.113 138.003,173.097 142.316,175.066C146.628,177.034 149.941,179.909 152.253,183.691C154.566,187.472 155.816,192.144 156.003,197.706C156.066,200.456 156.097,202.863 156.097,204.925C156.097,206.988 156.066,209.363 156.003,212.05C155.753,217.863 154.519,222.675 152.3,226.488C150.081,230.3 146.862,233.128 142.644,234.972C138.425,236.816 133.253,237.738 127.128,237.738L102.284,237.738ZM116.816,224.238L126.659,224.238C129.347,224.238 131.581,223.816 133.362,222.972C135.144,222.128 136.487,220.8 137.394,218.988C138.3,217.175 138.784,214.8 138.847,211.863C138.972,210.05 139.05,208.425 139.081,206.988C139.112,205.55 139.112,204.113 139.081,202.675C139.05,201.238 138.972,199.644 138.847,197.894C138.722,193.644 137.612,190.534 135.519,188.566C133.425,186.597 130.316,185.613 126.191,185.613L116.816,185.613L116.816,224.238Z" style="fill:rgb(128,25,30);fill-rule:nonzero;"/>
        </g>
        <g transform="matrix(1.02857,0,0,1.02857,-11.3492,-24.1738)">
            <path d="M160.503,237.738C159.941,237.738 159.456,237.534 159.05,237.128C158.644,236.722 158.441,236.269 158.441,235.769C158.441,235.581 158.472,235.394 158.534,235.206C158.597,235.019 158.691,234.831 158.816,234.644L179.253,204.269L160.316,175.206C160.128,174.831 160.034,174.456 160.034,174.081C160.034,173.581 160.222,173.128 160.597,172.722C160.972,172.316 161.441,172.113 162.003,172.113L175.597,172.113C176.534,172.113 177.253,172.347 177.753,172.816C178.253,173.284 178.628,173.706 178.878,174.081L190.034,191.05L201.378,174.081C201.628,173.706 202.003,173.284 202.503,172.816C203.003,172.347 203.722,172.113 204.659,172.113L217.597,172.113C218.097,172.113 218.55,172.316 218.956,172.722C219.362,173.128 219.566,173.581 219.566,174.081C219.566,174.519 219.441,174.894 219.191,175.206L200.159,204.175L220.784,234.644C220.909,234.831 220.987,235.019 221.019,235.206C221.05,235.394 221.066,235.581 221.066,235.769C221.066,236.269 220.878,236.722 220.503,237.128C220.128,237.534 219.659,237.738 219.097,237.738L205.128,237.738C204.191,237.738 203.456,237.503 202.925,237.034C202.394,236.566 202.034,236.175 201.847,235.863L189.472,217.863L177.191,235.863C177.003,236.175 176.659,236.566 176.159,237.034C175.659,237.503 174.941,237.738 174.003,237.738L160.503,237.738Z" style="fill:rgb(128,25,30);fill-rule:nonzero;"/>
        </g>
    </g>
</svg>
